<svg width="98" height="88" viewBox="0 0 98 88" fill="none" xmlns="http://www.w3.org/2000/svg">
<path d="M87.3525 51.2581L94.9031 17.9456C95.4482 15.5404 93.625 13.25 91.1651 13.25H28.4291L26.965 6.0734C26.6002 4.28461 25.0305 3 23.2095 3H6.83333C4.71622 3 3 4.72088 3 6.84375V9.40625C3 11.5291 4.71622 13.25 6.83333 13.25H17.9952L29.2154 68.2533C26.5311 69.8012 24.7222 72.7035 24.7222 76.0312C24.7222 80.9846 28.7268 85 33.6667 85C38.6066 85 42.6111 80.9846 42.6111 76.0312C42.6111 73.521 41.5814 71.253 39.924 69.625H73.4092C71.752 71.253 70.7222 73.521 70.7222 76.0312C70.7222 80.9846 74.7268 85 79.6667 85C84.6066 85 88.6111 80.9846 88.6111 76.0312C88.6111 72.4803 86.5526 69.4117 83.5673 67.9586L84.4484 64.0706C84.9936 61.6654 83.1703 59.375 80.7105 59.375H37.8381L36.7928 54.25H83.6145C85.4044 54.25 86.9559 53.0081 87.3525 51.2581Z" stroke="#151515" stroke-width="5"/>
</svg>
